# xmcd
#
# Track frame offsets:
#	150
#	14892
#	30400
#	45130
#	60528
#	76968
#	91508
#	105472
#	122439
#	138589
#	152545
#	164896
#	179561
#	196485
#	210178
#	224208
#	238756
#
# Disc length: 3347 seconds
#
# Revision: 1
# Processed by: cddbd v1.5.2PL0 Copyright (c) Steve Scherf et al.
# Submitted via: audiograbber 1.83.01
#
DISCID=e30d1111
DTITLE=Rascal Flatts - The Acoustic Sessions
DYEAR=2019
DGENRE=Country
TTITLE0=Cruise
TTITLE1=Round Here
TTITLE2=Stay
TTITLE3=Get Your Shine On
TTITLE4=This Is How We Roll (ft.Luke Bryan)
TTITLE5=Sippin' On Fire
TTITLE6=Sun Daze
TTITLE7=Dirt
TTITLE8=Anything Goes
TTITLE9=Confession
TTITLE10=Smooth
TTITLE11=H.O.L.Y.
TTITLE12=May We All (ft. Tim McGraw)
TTITLE13=God, Your Mama, And Me (ft. Backstreet Boys)
TTITLE14=Simple
TTITLE15=Talk You Out Of It
TTITLE16=Meant To Be (ft. Bebe Rexha)
EXTD=
EXTT0=
EXTT1=
EXTT2=
EXTT3=
EXTT4=
EXTT5=
EXTT6=
EXTT7=
EXTT8=
EXTT9=
EXTT10=
EXTT11=
EXTT12=
EXTT13=
EXTT14=
EXTT15=
EXTT16=
PLAYORDER=
